# xmcd
#
# Track frame offsets: 
#        150
#        15841
#        28686
#        38938
#        52211
#        62667
#
# Disc length: 952 seconds
#
# Revision: 0
# Processed by: cddbd v1.5.2PL0 Copyright (c) Steve Scherf et al.
# Submitted via: ExactAudioCopyFreeDBPlugin 1.0
#
DISCID=4703b606
DTITLE=No Name - Underdog
DYEAR=1999
DGENRE=Country
TTITLE0=Truckdrivin´Man
TTITLE1=Rock A` Billy Rebel
TTITLE2=Bad Moon Rising
TTITLE3=Sixteen Tons
TTITLE4=Underdog
TTITLE5=No Name Blues
EXTD=
EXTT0=
EXTT1=
EXTT2=
EXTT3=
EXTT4=
EXTT5=
PLAYORDER=
